<svg version="1.1" id="Layer_1" xmlns="http://www.w3.org/2000/svg" xmlns:xlink="http://www.w3.org/1999/xlink" x="0px" y="0px"
	 width="100%" viewBox="0 0 1024 544" enable-background="new 0 0 1024 544" xml:space="preserve">
<path fill="#000000" opacity="1.000000" stroke="none" 
	d="
M416.085449,330.525757 
	C413.805542,342.144592 408.783569,345.839783 397.560547,346.544250 
	C385.869293,347.278015 377.717133,342.829163 370.924805,333.373779 
	C349.444397,303.471680 327.462341,273.929962 305.670197,244.251846 
	C305.188202,243.595474 304.657135,242.975082 304.030334,242.189117 
	C302.352539,243.311218 302.751556,244.900192 302.754211,246.252640 
	C302.804321,271.745148 302.963165,297.237640 302.939819,322.730011 
	C302.927948,335.711182 298.611450,342.598175 289.141663,345.544067 
	C288.664551,345.692444 288.196228,345.878143 287.710724,345.989258 
	C279.272034,347.920166 277.663147,346.672363 277.663269,338.204529 
	C277.663788,303.044647 277.656433,267.884796 277.670746,232.724930 
	C277.675995,219.861160 282.745605,214.625488 295.358521,213.448318 
	C307.329071,212.331100 315.965118,216.744766 322.998108,226.581757 
	C344.023315,255.989624 365.556580,285.034241 386.896576,314.217010 
	C387.766785,315.407013 388.688385,316.559418 389.822754,318.037842 
	C391.204315,316.122803 390.674103,314.283081 390.676941,312.613495 
	C390.721191,286.618622 390.687836,260.623566 390.732971,234.628708 
	C390.756256,221.225510 397.258118,214.551727 410.611328,213.417282 
	C414.930695,213.050339 416.253326,214.502808 416.226593,218.600433 
	C416.114594,235.763031 416.184387,252.926743 416.175110,270.090057 
	C416.164307,290.085876 416.140533,310.081665 416.085449,330.525757 
z"/>
<path fill="#000000" opacity="1.000000" stroke="none" 
	d="
M119.513138,317.264130 
	C111.293243,295.090027 111.343719,272.836334 116.879120,250.628815 
	C122.131851,229.555359 136.682739,218.318481 157.713211,214.684433 
	C165.648605,213.313202 173.654327,213.343781 181.614929,213.212845 
	C201.436768,212.886887 221.266953,213.056549 241.093796,213.057022 
	C247.446747,213.057175 248.067795,213.909149 246.526917,220.128998 
	C243.894165,230.756332 237.244003,236.101151 226.030640,236.187424 
	C209.037109,236.318161 192.042099,236.273926 175.047729,236.263336 
	C170.523254,236.260513 166.034668,236.733505 161.689728,237.850815 
	C147.779053,241.427948 140.948257,250.756485 139.751907,267.540314 
	C142.125824,269.036469 144.843155,268.580444 147.432266,268.564026 
	C174.418106,268.392975 201.406662,268.979584 228.391434,268.163757 
	C236.214920,267.927216 236.224228,268.159821 236.231400,275.811676 
	C236.234055,278.644073 236.239868,281.476624 236.215439,284.308838 
	C236.160233,290.708801 235.958450,290.963043 229.326324,290.968872 
	C201.502121,290.993378 173.677887,290.963593 145.853653,290.980255 
	C139.059296,290.984314 139.014786,291.083801 140.253128,297.658447 
	C143.556915,315.198944 154.065445,323.356506 174.363617,323.622986 
	C191.688461,323.850464 209.018661,323.634216 226.345795,323.735443 
	C237.982254,323.803436 244.943375,329.949982 246.997101,341.396149 
	C247.637207,344.963745 246.761566,346.909943 242.879242,346.841309 
	C214.751450,346.344299 186.540970,348.603271 158.510559,345.197876 
	C140.876862,343.055603 127.195099,334.439728 119.513138,317.264130 
z"/>
<path fill="#000000" opacity="1.000000" stroke="none" 
	d="
M553.086304,294.006165 
	C547.121826,306.883148 541.195618,319.365265 535.531189,331.965088 
	C528.596985,347.389435 520.940308,347.308502 508.225800,346.032257 
	C500.910217,345.297882 496.823395,339.835083 493.896973,333.452698 
	C485.502808,315.145416 477.026886,296.875610 468.578827,278.593048 
	C459.432098,258.798553 450.266754,239.012634 441.157166,219.201065 
	C440.419647,217.597107 439.188141,216.087326 439.509888,214.116714 
	C457.410217,212.284790 466.413513,212.300827 473.654938,228.749420 
	C485.993835,256.776642 498.818176,284.590240 511.447632,312.489441 
	C512.248779,314.259247 513.127563,315.993927 514.463989,318.771149 
	C518.630371,309.609467 522.416382,301.360901 526.138916,293.083801 
	C535.833557,271.527802 545.622681,250.013000 555.122437,228.371307 
	C559.363342,218.710083 565.976929,213.026779 576.873169,213.208328 
	C580.947815,213.276215 585.102783,212.400360 589.845520,214.231903 
	C577.558594,240.894165 565.399597,267.278839 553.086304,294.006165 
z"/>
<path fill="#000000" opacity="1.000000" stroke="none" 
	d="
M659.253906,248.775909 
	C665.379517,257.249634 671.299255,265.431671 677.764160,274.367249 
	C682.588867,267.779419 686.912415,261.947144 691.160156,256.060089 
	C698.759277,245.528091 706.474487,235.074234 713.827942,224.372467 
	C718.659729,217.340683 725.160828,213.835098 733.486206,213.352341 
	C738.907227,213.037994 744.344299,212.592560 749.772766,213.641373 
	C749.977966,216.727127 747.947571,218.262772 746.656128,220.043564 
	C729.452393,243.764893 712.245056,267.484497 694.843201,291.060333 
	C691.610840,295.439423 690.103577,299.837708 690.254822,305.317413 
	C690.585510,317.300201 690.217529,329.300934 690.431274,341.289062 
	C690.504700,345.407501 689.046326,347.080658 684.989929,346.893494 
	C679.837036,346.655731 674.667664,346.378632 669.519958,346.551331 
	C665.548523,346.684479 664.804993,344.797394 664.833618,341.389008 
	C664.942810,328.398651 664.802490,315.406219 664.916016,302.415955 
	C664.946350,298.936737 664.149231,296.020691 662.053284,293.155365 
	C644.356873,268.963196 626.765869,244.693802 609.183228,220.418610 
	C607.768005,218.464706 605.952087,216.682831 605.370361,214.115005 
	C622.458923,212.507492 633.594299,211.480606 643.341858,226.557190 
	C648.217712,234.098633 653.790405,241.189545 659.253906,248.775909 
z"/>
<path fill="#000000" opacity="1.000000" stroke="none" 
	d="
M830.842529,305.823517 
	C821.932373,315.968719 813.087463,325.706940 804.641174,335.779419 
	C798.790833,342.756042 791.762695,346.522675 782.593689,346.458862 
	C776.816650,346.418640 771.015442,347.540100 764.048645,345.811035 
	C783.434143,323.553192 802.353149,301.830902 821.713257,279.602234 
	C803.072754,257.833588 784.632019,236.298096 766.326782,214.920883 
	C767.622070,212.679413 769.266541,213.092239 770.674927,213.117432 
	C775.996948,213.212555 781.316223,213.455170 786.638000,213.573730 
	C794.294983,213.744293 800.369202,217.086716 805.295227,222.762421 
	C820.571411,240.363434 835.783264,258.020905 851.165344,275.528809 
	C853.749146,278.469696 853.401855,280.376495 850.899475,283.097412 
	C844.141296,290.445831 837.665649,298.054016 830.842529,305.823517 
z"/>
<path fill="#000000" opacity="1.000000" stroke="none" 
	d="
M855.054810,316.930969 
	C845.601074,305.941650 845.601135,305.941681 855.114441,295.275269 
	C861.794861,287.785156 861.944824,287.652374 868.654541,295.232452 
	C882.562256,310.944153 896.294495,326.811127 910.096680,342.616211 
	C910.855774,343.485443 911.723694,344.310822 911.575806,345.621307 
	C896.890015,350.503204 880.121826,345.987518 870.331604,334.576202 
	C865.343018,328.761566 860.305481,322.988922 855.054810,316.930969 
z"/>
<path fill="#000000" opacity="1.000000" stroke="none" 
	d="
M848.004028,251.059357 
	C855.756409,242.130447 863.473938,233.634659 870.774414,224.794479 
	C876.880676,217.400299 884.311340,213.250839 893.974670,213.197769 
	C899.419495,213.167877 904.869202,212.843414 911.640564,213.865479 
	C894.813110,233.050415 878.606079,251.527969 861.777893,270.713654 
	C856.751770,264.843597 852.144775,259.496918 847.588257,254.107605 
	C846.844727,253.228256 847.188599,252.228241 848.004028,251.059357 
z"/>
</svg>