<svg version="1.1" id="Layer_1" xmlns="http://www.w3.org/2000/svg" xmlns:xlink="http://www.w3.org/1999/xlink" x="0px" y="0px"
	 width="100%" viewBox="0 0 1024 544" enable-background="new 0 0 1024 544" xml:space="preserve">
<path fill="#000000" opacity="1.000000" stroke="none" 
	d="
M431.575317,403.573303 
	C421.265015,415.166412 408.528564,420.917480 393.488342,421.298889 
	C381.668335,421.598633 369.835388,421.400604 358.008209,421.392914 
	C356.535553,421.391968 355.063019,421.202087 353.617035,421.101624 
	C352.926331,418.366577 355.001190,417.238007 356.198334,415.846527 
	C376.289581,392.493195 396.467987,369.214874 416.582855,345.881744 
	C434.741302,324.818085 452.774811,303.645966 471.048676,282.683136 
	C473.915863,279.394043 473.520813,277.336151 470.876373,274.277405 
	C445.062683,244.419830 419.374207,214.454010 393.651398,184.517853 
	C382.037567,171.001740 370.417816,157.490662 358.829529,143.952652 
	C357.782288,142.729218 356.440674,141.625381 356.222076,139.822617 
	C357.707642,138.047241 359.669342,138.712662 361.375854,138.701294 
	C372.036560,138.630173 382.700409,138.807953 393.358551,138.627838 
	C411.692474,138.318024 426.691925,145.145523 438.618561,159.021515 
	C462.065674,186.301071 485.563263,213.537292 509.049133,240.783508 
	C518.508057,251.756821 527.876587,262.811707 537.533447,273.608337 
	C540.394226,276.806732 540.215942,278.995636 537.513306,282.086609 
	C502.224457,322.446106 467.025421,362.884094 431.575317,403.573303 
z"/>
<path fill="#000000" opacity="1.000000" stroke="none" 
	d="
M544.822388,311.847687 
	C548.226624,307.935272 551.645447,304.472443 554.495911,300.592133 
	C557.310364,296.760803 559.248535,297.162018 562.107361,300.591766 
	C572.984375,313.641083 584.032410,326.548920 595.097046,339.440430 
	C617.012329,364.973877 638.983704,390.459198 660.920166,415.974518 
	C661.989197,417.217987 663.352905,418.294525 663.613708,420.161407 
	C662.576599,422.055176 660.704041,421.330963 659.189270,421.338684 
	C647.192444,421.399963 635.194153,421.468292 623.198425,421.336243 
	C607.713440,421.165833 594.575195,415.402618 584.382385,403.729767 
	C565.865051,382.523621 547.625183,361.075256 529.145630,339.835754 
	C526.190063,336.438782 525.999329,333.903351 529.141541,330.461121 
	C534.526855,324.561462 539.463074,318.251862 544.822388,311.847687 
z"/>
<path fill="#000000" opacity="1.000000" stroke="none" 
	d="
M555.773071,187.794540 
	C564.994202,177.262039 573.917480,166.938599 583.017151,156.773041 
	C593.568787,144.985428 606.921021,139.021072 622.681946,138.708542 
	C633.829712,138.487488 644.985474,138.645432 656.137512,138.681046 
	C657.758972,138.686234 659.464111,138.305435 662.011353,139.911163 
	C627.272583,179.389999 592.676636,218.706512 558.353027,257.713501 
	C555.684265,257.331970 554.926575,255.696411 553.874695,254.478806 
	C545.824341,245.159653 537.923218,235.708420 529.724609,226.522308 
	C526.891174,223.347580 526.412048,221.059082 529.495789,217.675140 
	C538.348877,207.960312 546.889648,197.960938 555.773071,187.794540 
z"/>
</svg>